<svg xmlns="http://www.w3.org/2000/svg" width="262" height="262" viewBox="0 0 262 262">
  <g id="Group_4" data-name="Group 4" transform="translate(-627 -3181)" opacity="0.15">
    <circle id="Ellipse_26" data-name="Ellipse 26" cx="3.5" cy="3.5" r="3.5" transform="translate(627 3181)"/>
    <circle id="Ellipse_154" data-name="Ellipse 154" cx="3.5" cy="3.5" r="3.5" transform="translate(627 3317)"/>
    <circle id="Ellipse_90" data-name="Ellipse 90" cx="3.5" cy="3.5" r="3.5" transform="translate(627 3249)"/>
    <circle id="Ellipse_155" data-name="Ellipse 155" cx="3.5" cy="3.5" r="3.5" transform="translate(627 3385)"/>
    <circle id="Ellipse_58" data-name="Ellipse 58" cx="3.5" cy="3.5" r="3.5" transform="translate(627 3215)"/>
    <circle id="Ellipse_156" data-name="Ellipse 156" cx="3.5" cy="3.5" r="3.5" transform="translate(627 3351)"/>
    <circle id="Ellipse_91" data-name="Ellipse 91" cx="3.5" cy="3.5" r="3.5" transform="translate(627 3283)"/>
    <circle id="Ellipse_157" data-name="Ellipse 157" cx="3.5" cy="3.5" r="3.5" transform="translate(627 3419)"/>
    <circle id="Ellipse_42" data-name="Ellipse 42" cx="3.5" cy="3.5" r="3.5" transform="translate(627 3198)"/>
    <circle id="Ellipse_158" data-name="Ellipse 158" cx="3.5" cy="3.5" r="3.5" transform="translate(627 3334)"/>
    <circle id="Ellipse_92" data-name="Ellipse 92" cx="3.5" cy="3.5" r="3.5" transform="translate(627 3266)"/>
    <circle id="Ellipse_159" data-name="Ellipse 159" cx="3.5" cy="3.5" r="3.5" transform="translate(627 3402)"/>
    <circle id="Ellipse_59" data-name="Ellipse 59" cx="3.5" cy="3.5" r="3.5" transform="translate(627 3232)"/>
    <circle id="Ellipse_160" data-name="Ellipse 160" cx="3.5" cy="3.5" r="3.5" transform="translate(627 3368)"/>
    <circle id="Ellipse_93" data-name="Ellipse 93" cx="3.5" cy="3.5" r="3.5" transform="translate(627 3300)"/>
    <circle id="Ellipse_161" data-name="Ellipse 161" cx="3.5" cy="3.5" r="3.5" transform="translate(627 3436)"/>
    <circle id="Ellipse_34" data-name="Ellipse 34" cx="3.5" cy="3.5" r="3.5" transform="translate(763 3181)"/>
    <circle id="Ellipse_162" data-name="Ellipse 162" cx="3.5" cy="3.5" r="3.5" transform="translate(763 3317)"/>
    <circle id="Ellipse_94" data-name="Ellipse 94" cx="3.5" cy="3.5" r="3.5" transform="translate(763 3249)"/>
    <circle id="Ellipse_163" data-name="Ellipse 163" cx="3.5" cy="3.5" r="3.5" transform="translate(763 3385)"/>
    <circle id="Ellipse_72" data-name="Ellipse 72" cx="3.5" cy="3.5" r="3.5" transform="translate(763 3215)"/>
    <circle id="Ellipse_164" data-name="Ellipse 164" cx="3.5" cy="3.5" r="3.5" transform="translate(763 3351)"/>
    <circle id="Ellipse_95" data-name="Ellipse 95" cx="3.5" cy="3.5" r="3.5" transform="translate(763 3283)"/>
    <circle id="Ellipse_165" data-name="Ellipse 165" cx="3.5" cy="3.5" r="3.5" transform="translate(763 3419)"/>
    <circle id="Ellipse_49" data-name="Ellipse 49" cx="3.5" cy="3.5" r="3.5" transform="translate(763 3198)"/>
    <circle id="Ellipse_166" data-name="Ellipse 166" cx="3.5" cy="3.5" r="3.5" transform="translate(763 3334)"/>
    <circle id="Ellipse_96" data-name="Ellipse 96" cx="3.5" cy="3.5" r="3.5" transform="translate(763 3266)"/>
    <circle id="Ellipse_167" data-name="Ellipse 167" cx="3.5" cy="3.5" r="3.5" transform="translate(763 3402)"/>
    <circle id="Ellipse_73" data-name="Ellipse 73" cx="3.5" cy="3.5" r="3.5" transform="translate(763 3232)"/>
    <circle id="Ellipse_168" data-name="Ellipse 168" cx="3.5" cy="3.5" r="3.5" transform="translate(763 3368)"/>
    <circle id="Ellipse_97" data-name="Ellipse 97" cx="3.5" cy="3.5" r="3.5" transform="translate(763 3300)"/>
    <circle id="Ellipse_169" data-name="Ellipse 169" cx="3.5" cy="3.5" r="3.5" transform="translate(763 3436)"/>
    <circle id="Ellipse_30" data-name="Ellipse 30" cx="3.5" cy="3.5" r="3.5" transform="translate(695 3181)"/>
    <circle id="Ellipse_170" data-name="Ellipse 170" cx="3.5" cy="3.5" r="3.5" transform="translate(695 3317)"/>
    <circle id="Ellipse_98" data-name="Ellipse 98" cx="3.5" cy="3.5" r="3.5" transform="translate(695 3249)"/>
    <circle id="Ellipse_171" data-name="Ellipse 171" cx="3.5" cy="3.5" r="3.5" transform="translate(695 3385)"/>
    <circle id="Ellipse_60" data-name="Ellipse 60" cx="3.5" cy="3.5" r="3.5" transform="translate(695 3215)"/>
    <circle id="Ellipse_172" data-name="Ellipse 172" cx="3.5" cy="3.5" r="3.5" transform="translate(695 3351)"/>
    <circle id="Ellipse_99" data-name="Ellipse 99" cx="3.5" cy="3.5" r="3.5" transform="translate(695 3283)"/>
    <circle id="Ellipse_173" data-name="Ellipse 173" cx="3.5" cy="3.5" r="3.5" transform="translate(695 3419)"/>
    <circle id="Ellipse_43" data-name="Ellipse 43" cx="3.5" cy="3.5" r="3.5" transform="translate(695 3198)"/>
    <circle id="Ellipse_174" data-name="Ellipse 174" cx="3.5" cy="3.5" r="3.5" transform="translate(695 3334)"/>
    <circle id="Ellipse_100" data-name="Ellipse 100" cx="3.5" cy="3.5" r="3.5" transform="translate(695 3266)"/>
    <circle id="Ellipse_175" data-name="Ellipse 175" cx="3.5" cy="3.5" r="3.5" transform="translate(695 3402)"/>
    <circle id="Ellipse_61" data-name="Ellipse 61" cx="3.5" cy="3.5" r="3.5" transform="translate(695 3232)"/>
    <circle id="Ellipse_176" data-name="Ellipse 176" cx="3.5" cy="3.5" r="3.5" transform="translate(695 3368)"/>
    <circle id="Ellipse_101" data-name="Ellipse 101" cx="3.5" cy="3.5" r="3.5" transform="translate(695 3300)"/>
    <circle id="Ellipse_177" data-name="Ellipse 177" cx="3.5" cy="3.5" r="3.5" transform="translate(695 3436)"/>
    <circle id="Ellipse_38" data-name="Ellipse 38" cx="3.5" cy="3.5" r="3.5" transform="translate(831 3181)"/>
    <circle id="Ellipse_178" data-name="Ellipse 178" cx="3.5" cy="3.5" r="3.5" transform="translate(831 3317)"/>
    <circle id="Ellipse_102" data-name="Ellipse 102" cx="3.5" cy="3.5" r="3.5" transform="translate(831 3249)"/>
    <circle id="Ellipse_179" data-name="Ellipse 179" cx="3.5" cy="3.5" r="3.5" transform="translate(831 3385)"/>
    <circle id="Ellipse_82" data-name="Ellipse 82" cx="3.5" cy="3.5" r="3.5" transform="translate(831 3215)"/>
    <circle id="Ellipse_180" data-name="Ellipse 180" cx="3.5" cy="3.5" r="3.5" transform="translate(831 3351)"/>
    <circle id="Ellipse_103" data-name="Ellipse 103" cx="3.5" cy="3.5" r="3.5" transform="translate(831 3283)"/>
    <circle id="Ellipse_181" data-name="Ellipse 181" cx="3.5" cy="3.5" r="3.5" transform="translate(831 3419)"/>
    <circle id="Ellipse_50" data-name="Ellipse 50" cx="3.5" cy="3.5" r="3.5" transform="translate(831 3198)"/>
    <circle id="Ellipse_182" data-name="Ellipse 182" cx="3.5" cy="3.5" r="3.5" transform="translate(831 3334)"/>
    <circle id="Ellipse_104" data-name="Ellipse 104" cx="3.5" cy="3.5" r="3.5" transform="translate(831 3266)"/>
    <circle id="Ellipse_183" data-name="Ellipse 183" cx="3.5" cy="3.5" r="3.5" transform="translate(831 3402)"/>
    <circle id="Ellipse_83" data-name="Ellipse 83" cx="3.5" cy="3.5" r="3.5" transform="translate(831 3232)"/>
    <circle id="Ellipse_184" data-name="Ellipse 184" cx="3.5" cy="3.5" r="3.5" transform="translate(831 3368)"/>
    <circle id="Ellipse_105" data-name="Ellipse 105" cx="3.5" cy="3.5" r="3.5" transform="translate(831 3300)"/>
    <circle id="Ellipse_185" data-name="Ellipse 185" cx="3.5" cy="3.5" r="3.5" transform="translate(831 3436)"/>
    <circle id="Ellipse_28" data-name="Ellipse 28" cx="3.5" cy="3.5" r="3.5" transform="translate(661 3181)"/>
    <circle id="Ellipse_186" data-name="Ellipse 186" cx="3.5" cy="3.5" r="3.5" transform="translate(661 3317)"/>
    <circle id="Ellipse_106" data-name="Ellipse 106" cx="3.5" cy="3.5" r="3.5" transform="translate(661 3249)"/>
    <circle id="Ellipse_187" data-name="Ellipse 187" cx="3.5" cy="3.5" r="3.5" transform="translate(661 3385)"/>
    <circle id="Ellipse_62" data-name="Ellipse 62" cx="3.5" cy="3.5" r="3.5" transform="translate(661 3215)"/>
    <circle id="Ellipse_188" data-name="Ellipse 188" cx="3.5" cy="3.5" r="3.5" transform="translate(661 3351)"/>
    <circle id="Ellipse_107" data-name="Ellipse 107" cx="3.5" cy="3.5" r="3.5" transform="translate(661 3283)"/>
    <circle id="Ellipse_189" data-name="Ellipse 189" cx="3.5" cy="3.5" r="3.5" transform="translate(661 3419)"/>
    <circle id="Ellipse_44" data-name="Ellipse 44" cx="3.5" cy="3.5" r="3.5" transform="translate(661 3198)"/>
    <circle id="Ellipse_190" data-name="Ellipse 190" cx="3.5" cy="3.5" r="3.5" transform="translate(661 3334)"/>
    <circle id="Ellipse_108" data-name="Ellipse 108" cx="3.5" cy="3.5" r="3.5" transform="translate(661 3266)"/>
    <circle id="Ellipse_191" data-name="Ellipse 191" cx="3.5" cy="3.5" r="3.5" transform="translate(661 3402)"/>
    <circle id="Ellipse_63" data-name="Ellipse 63" cx="3.5" cy="3.5" r="3.5" transform="translate(661 3232)"/>
    <circle id="Ellipse_192" data-name="Ellipse 192" cx="3.5" cy="3.5" r="3.5" transform="translate(661 3368)"/>
    <circle id="Ellipse_109" data-name="Ellipse 109" cx="3.5" cy="3.5" r="3.5" transform="translate(661 3300)"/>
    <circle id="Ellipse_193" data-name="Ellipse 193" cx="3.5" cy="3.5" r="3.5" transform="translate(661 3436)"/>
    <circle id="Ellipse_35" data-name="Ellipse 35" cx="3.5" cy="3.5" r="3.5" transform="translate(797 3181)"/>
    <circle id="Ellipse_194" data-name="Ellipse 194" cx="3.5" cy="3.5" r="3.5" transform="translate(797 3317)"/>
    <circle id="Ellipse_110" data-name="Ellipse 110" cx="3.5" cy="3.5" r="3.5" transform="translate(797 3249)"/>
    <circle id="Ellipse_195" data-name="Ellipse 195" cx="3.5" cy="3.5" r="3.5" transform="translate(797 3385)"/>
    <circle id="Ellipse_74" data-name="Ellipse 74" cx="3.5" cy="3.5" r="3.5" transform="translate(797 3215)"/>
    <circle id="Ellipse_196" data-name="Ellipse 196" cx="3.5" cy="3.5" r="3.5" transform="translate(797 3351)"/>
    <circle id="Ellipse_111" data-name="Ellipse 111" cx="3.5" cy="3.5" r="3.5" transform="translate(797 3283)"/>
    <circle id="Ellipse_197" data-name="Ellipse 197" cx="3.5" cy="3.5" r="3.5" transform="translate(797 3419)"/>
    <circle id="Ellipse_51" data-name="Ellipse 51" cx="3.5" cy="3.5" r="3.5" transform="translate(797 3198)"/>
    <circle id="Ellipse_198" data-name="Ellipse 198" cx="3.5" cy="3.5" r="3.5" transform="translate(797 3334)"/>
    <circle id="Ellipse_112" data-name="Ellipse 112" cx="3.5" cy="3.5" r="3.5" transform="translate(797 3266)"/>
    <circle id="Ellipse_199" data-name="Ellipse 199" cx="3.5" cy="3.5" r="3.5" transform="translate(797 3402)"/>
    <circle id="Ellipse_75" data-name="Ellipse 75" cx="3.5" cy="3.5" r="3.5" transform="translate(797 3232)"/>
    <circle id="Ellipse_200" data-name="Ellipse 200" cx="3.5" cy="3.5" r="3.5" transform="translate(797 3368)"/>
    <circle id="Ellipse_113" data-name="Ellipse 113" cx="3.5" cy="3.5" r="3.5" transform="translate(797 3300)"/>
    <circle id="Ellipse_201" data-name="Ellipse 201" cx="3.5" cy="3.5" r="3.5" transform="translate(797 3436)"/>
    <circle id="Ellipse_32" data-name="Ellipse 32" cx="3.5" cy="3.5" r="3.5" transform="translate(729 3181)"/>
    <circle id="Ellipse_202" data-name="Ellipse 202" cx="3.5" cy="3.5" r="3.5" transform="translate(729 3317)"/>
    <circle id="Ellipse_114" data-name="Ellipse 114" cx="3.5" cy="3.5" r="3.5" transform="translate(729 3249)"/>
    <circle id="Ellipse_203" data-name="Ellipse 203" cx="3.5" cy="3.5" r="3.5" transform="translate(729 3385)"/>
    <circle id="Ellipse_70" data-name="Ellipse 70" cx="3.5" cy="3.5" r="3.5" transform="translate(729 3215)"/>
    <circle id="Ellipse_204" data-name="Ellipse 204" cx="3.5" cy="3.5" r="3.5" transform="translate(729 3351)"/>
    <circle id="Ellipse_115" data-name="Ellipse 115" cx="3.5" cy="3.5" r="3.5" transform="translate(729 3283)"/>
    <circle id="Ellipse_205" data-name="Ellipse 205" cx="3.5" cy="3.5" r="3.5" transform="translate(729 3419)"/>
    <circle id="Ellipse_48" data-name="Ellipse 48" cx="3.5" cy="3.5" r="3.5" transform="translate(729 3198)"/>
    <circle id="Ellipse_206" data-name="Ellipse 206" cx="3.5" cy="3.5" r="3.5" transform="translate(729 3334)"/>
    <circle id="Ellipse_116" data-name="Ellipse 116" cx="3.5" cy="3.5" r="3.5" transform="translate(729 3266)"/>
    <circle id="Ellipse_207" data-name="Ellipse 207" cx="3.5" cy="3.5" r="3.5" transform="translate(729 3402)"/>
    <circle id="Ellipse_71" data-name="Ellipse 71" cx="3.5" cy="3.5" r="3.5" transform="translate(729 3232)"/>
    <circle id="Ellipse_208" data-name="Ellipse 208" cx="3.5" cy="3.5" r="3.5" transform="translate(729 3368)"/>
    <circle id="Ellipse_117" data-name="Ellipse 117" cx="3.5" cy="3.5" r="3.5" transform="translate(729 3300)"/>
    <circle id="Ellipse_209" data-name="Ellipse 209" cx="3.5" cy="3.5" r="3.5" transform="translate(729 3436)"/>
    <circle id="Ellipse_40" data-name="Ellipse 40" cx="3.5" cy="3.5" r="3.5" transform="translate(865 3181)"/>
    <circle id="Ellipse_210" data-name="Ellipse 210" cx="3.5" cy="3.5" r="3.5" transform="translate(865 3317)"/>
    <circle id="Ellipse_118" data-name="Ellipse 118" cx="3.5" cy="3.5" r="3.5" transform="translate(865 3249)"/>
    <circle id="Ellipse_211" data-name="Ellipse 211" cx="3.5" cy="3.5" r="3.5" transform="translate(865 3385)"/>
    <circle id="Ellipse_86" data-name="Ellipse 86" cx="3.5" cy="3.5" r="3.5" transform="translate(865 3215)"/>
    <circle id="Ellipse_212" data-name="Ellipse 212" cx="3.5" cy="3.5" r="3.5" transform="translate(865 3351)"/>
    <circle id="Ellipse_119" data-name="Ellipse 119" cx="3.5" cy="3.5" r="3.5" transform="translate(865 3283)"/>
    <circle id="Ellipse_213" data-name="Ellipse 213" cx="3.5" cy="3.5" r="3.5" transform="translate(865 3419)"/>
    <circle id="Ellipse_55" data-name="Ellipse 55" cx="3.5" cy="3.5" r="3.5" transform="translate(865 3198)"/>
    <circle id="Ellipse_214" data-name="Ellipse 214" cx="3.5" cy="3.5" r="3.5" transform="translate(865 3334)"/>
    <circle id="Ellipse_120" data-name="Ellipse 120" cx="3.5" cy="3.5" r="3.5" transform="translate(865 3266)"/>
    <circle id="Ellipse_215" data-name="Ellipse 215" cx="3.5" cy="3.5" r="3.5" transform="translate(865 3402)"/>
    <circle id="Ellipse_87" data-name="Ellipse 87" cx="3.5" cy="3.5" r="3.5" transform="translate(865 3232)"/>
    <circle id="Ellipse_216" data-name="Ellipse 216" cx="3.5" cy="3.5" r="3.5" transform="translate(865 3368)"/>
    <circle id="Ellipse_121" data-name="Ellipse 121" cx="3.5" cy="3.5" r="3.5" transform="translate(865 3300)"/>
    <circle id="Ellipse_217" data-name="Ellipse 217" cx="3.5" cy="3.5" r="3.5" transform="translate(865 3436)"/>
    <circle id="Ellipse_27" data-name="Ellipse 27" cx="3.5" cy="3.5" r="3.5" transform="translate(644 3181)"/>
    <circle id="Ellipse_218" data-name="Ellipse 218" cx="3.5" cy="3.5" r="3.5" transform="translate(644 3317)"/>
    <circle id="Ellipse_122" data-name="Ellipse 122" cx="3.5" cy="3.5" r="3.5" transform="translate(644 3249)"/>
    <circle id="Ellipse_219" data-name="Ellipse 219" cx="3.5" cy="3.5" r="3.5" transform="translate(644 3385)"/>
    <circle id="Ellipse_64" data-name="Ellipse 64" cx="3.5" cy="3.5" r="3.5" transform="translate(644 3215)"/>
    <circle id="Ellipse_220" data-name="Ellipse 220" cx="3.5" cy="3.5" r="3.5" transform="translate(644 3351)"/>
    <circle id="Ellipse_123" data-name="Ellipse 123" cx="3.5" cy="3.5" r="3.5" transform="translate(644 3283)"/>
    <circle id="Ellipse_221" data-name="Ellipse 221" cx="3.5" cy="3.5" r="3.5" transform="translate(644 3419)"/>
    <circle id="Ellipse_45" data-name="Ellipse 45" cx="3.5" cy="3.5" r="3.5" transform="translate(644 3198)"/>
    <circle id="Ellipse_222" data-name="Ellipse 222" cx="3.5" cy="3.5" r="3.5" transform="translate(644 3334)"/>
    <circle id="Ellipse_124" data-name="Ellipse 124" cx="3.5" cy="3.5" r="3.5" transform="translate(644 3266)"/>
    <circle id="Ellipse_223" data-name="Ellipse 223" cx="3.5" cy="3.5" r="3.5" transform="translate(644 3402)"/>
    <circle id="Ellipse_65" data-name="Ellipse 65" cx="3.5" cy="3.5" r="3.5" transform="translate(644 3232)"/>
    <circle id="Ellipse_224" data-name="Ellipse 224" cx="3.5" cy="3.5" r="3.5" transform="translate(644 3368)"/>
    <circle id="Ellipse_125" data-name="Ellipse 125" cx="3.5" cy="3.5" r="3.5" transform="translate(644 3300)"/>
    <circle id="Ellipse_225" data-name="Ellipse 225" cx="3.5" cy="3.5" r="3.5" transform="translate(644 3436)"/>
    <circle id="Ellipse_36" data-name="Ellipse 36" cx="3.5" cy="3.5" r="3.5" transform="translate(780 3181)"/>
    <circle id="Ellipse_226" data-name="Ellipse 226" cx="3.5" cy="3.5" r="3.5" transform="translate(780 3317)"/>
    <circle id="Ellipse_126" data-name="Ellipse 126" cx="3.5" cy="3.5" r="3.5" transform="translate(780 3249)"/>
    <circle id="Ellipse_227" data-name="Ellipse 227" cx="3.5" cy="3.5" r="3.5" transform="translate(780 3385)"/>
    <circle id="Ellipse_76" data-name="Ellipse 76" cx="3.5" cy="3.5" r="3.5" transform="translate(780 3215)"/>
    <circle id="Ellipse_228" data-name="Ellipse 228" cx="3.5" cy="3.5" r="3.5" transform="translate(780 3351)"/>
    <circle id="Ellipse_127" data-name="Ellipse 127" cx="3.5" cy="3.5" r="3.5" transform="translate(780 3283)"/>
    <circle id="Ellipse_229" data-name="Ellipse 229" cx="3.5" cy="3.5" r="3.5" transform="translate(780 3419)"/>
    <circle id="Ellipse_52" data-name="Ellipse 52" cx="3.5" cy="3.5" r="3.5" transform="translate(780 3198)"/>
    <circle id="Ellipse_230" data-name="Ellipse 230" cx="3.5" cy="3.5" r="3.5" transform="translate(780 3334)"/>
    <circle id="Ellipse_128" data-name="Ellipse 128" cx="3.5" cy="3.5" r="3.5" transform="translate(780 3266)"/>
    <circle id="Ellipse_231" data-name="Ellipse 231" cx="3.5" cy="3.5" r="3.5" transform="translate(780 3402)"/>
    <circle id="Ellipse_77" data-name="Ellipse 77" cx="3.5" cy="3.5" r="3.5" transform="translate(780 3232)"/>
    <circle id="Ellipse_232" data-name="Ellipse 232" cx="3.5" cy="3.5" r="3.5" transform="translate(780 3368)"/>
    <circle id="Ellipse_129" data-name="Ellipse 129" cx="3.5" cy="3.5" r="3.5" transform="translate(780 3300)"/>
    <circle id="Ellipse_233" data-name="Ellipse 233" cx="3.5" cy="3.5" r="3.5" transform="translate(780 3436)"/>
    <circle id="Ellipse_31" data-name="Ellipse 31" cx="3.5" cy="3.5" r="3.5" transform="translate(712 3181)"/>
    <circle id="Ellipse_234" data-name="Ellipse 234" cx="3.5" cy="3.5" r="3.5" transform="translate(712 3317)"/>
    <circle id="Ellipse_130" data-name="Ellipse 130" cx="3.5" cy="3.5" r="3.5" transform="translate(712 3249)"/>
    <circle id="Ellipse_235" data-name="Ellipse 235" cx="3.5" cy="3.5" r="3.5" transform="translate(712 3385)"/>
    <circle id="Ellipse_66" data-name="Ellipse 66" cx="3.5" cy="3.5" r="3.5" transform="translate(712 3215)"/>
    <circle id="Ellipse_236" data-name="Ellipse 236" cx="3.5" cy="3.5" r="3.5" transform="translate(712 3351)"/>
    <circle id="Ellipse_131" data-name="Ellipse 131" cx="3.5" cy="3.5" r="3.5" transform="translate(712 3283)"/>
    <circle id="Ellipse_237" data-name="Ellipse 237" cx="3.5" cy="3.5" r="3.5" transform="translate(712 3419)"/>
    <circle id="Ellipse_46" data-name="Ellipse 46" cx="3.5" cy="3.5" r="3.5" transform="translate(712 3198)"/>
    <circle id="Ellipse_238" data-name="Ellipse 238" cx="3.5" cy="3.5" r="3.5" transform="translate(712 3334)"/>
    <circle id="Ellipse_132" data-name="Ellipse 132" cx="3.5" cy="3.5" r="3.5" transform="translate(712 3266)"/>
    <circle id="Ellipse_239" data-name="Ellipse 239" cx="3.5" cy="3.5" r="3.5" transform="translate(712 3402)"/>
    <circle id="Ellipse_67" data-name="Ellipse 67" cx="3.5" cy="3.5" r="3.5" transform="translate(712 3232)"/>
    <circle id="Ellipse_240" data-name="Ellipse 240" cx="3.5" cy="3.5" r="3.5" transform="translate(712 3368)"/>
    <circle id="Ellipse_133" data-name="Ellipse 133" cx="3.5" cy="3.5" r="3.5" transform="translate(712 3300)"/>
    <circle id="Ellipse_241" data-name="Ellipse 241" cx="3.5" cy="3.5" r="3.5" transform="translate(712 3436)"/>
    <circle id="Ellipse_39" data-name="Ellipse 39" cx="3.5" cy="3.5" r="3.5" transform="translate(848 3181)"/>
    <circle id="Ellipse_242" data-name="Ellipse 242" cx="3.5" cy="3.5" r="3.5" transform="translate(848 3317)"/>
    <circle id="Ellipse_134" data-name="Ellipse 134" cx="3.5" cy="3.5" r="3.5" transform="translate(848 3249)"/>
    <circle id="Ellipse_243" data-name="Ellipse 243" cx="3.5" cy="3.5" r="3.5" transform="translate(848 3385)"/>
    <circle id="Ellipse_84" data-name="Ellipse 84" cx="3.5" cy="3.5" r="3.5" transform="translate(848 3215)"/>
    <circle id="Ellipse_244" data-name="Ellipse 244" cx="3.5" cy="3.5" r="3.5" transform="translate(848 3351)"/>
    <circle id="Ellipse_135" data-name="Ellipse 135" cx="3.5" cy="3.5" r="3.5" transform="translate(848 3283)"/>
    <circle id="Ellipse_245" data-name="Ellipse 245" cx="3.5" cy="3.5" r="3.5" transform="translate(848 3419)"/>
    <circle id="Ellipse_56" data-name="Ellipse 56" cx="3.5" cy="3.5" r="3.5" transform="translate(848 3198)"/>
    <circle id="Ellipse_246" data-name="Ellipse 246" cx="3.5" cy="3.5" r="3.5" transform="translate(848 3334)"/>
    <circle id="Ellipse_136" data-name="Ellipse 136" cx="3.5" cy="3.5" r="3.5" transform="translate(848 3266)"/>
    <circle id="Ellipse_247" data-name="Ellipse 247" cx="3.5" cy="3.5" r="3.5" transform="translate(848 3402)"/>
    <circle id="Ellipse_85" data-name="Ellipse 85" cx="3.5" cy="3.5" r="3.5" transform="translate(848 3232)"/>
    <circle id="Ellipse_248" data-name="Ellipse 248" cx="3.5" cy="3.5" r="3.5" transform="translate(848 3368)"/>
    <circle id="Ellipse_137" data-name="Ellipse 137" cx="3.5" cy="3.5" r="3.5" transform="translate(848 3300)"/>
    <circle id="Ellipse_249" data-name="Ellipse 249" cx="3.5" cy="3.5" r="3.5" transform="translate(848 3436)"/>
    <circle id="Ellipse_29" data-name="Ellipse 29" cx="3.5" cy="3.5" r="3.5" transform="translate(678 3181)"/>
    <circle id="Ellipse_250" data-name="Ellipse 250" cx="3.5" cy="3.5" r="3.5" transform="translate(678 3317)"/>
    <circle id="Ellipse_138" data-name="Ellipse 138" cx="3.5" cy="3.5" r="3.5" transform="translate(678 3249)"/>
    <circle id="Ellipse_251" data-name="Ellipse 251" cx="3.5" cy="3.5" r="3.5" transform="translate(678 3385)"/>
    <circle id="Ellipse_68" data-name="Ellipse 68" cx="3.5" cy="3.5" r="3.5" transform="translate(678 3215)"/>
    <circle id="Ellipse_252" data-name="Ellipse 252" cx="3.5" cy="3.5" r="3.5" transform="translate(678 3351)"/>
    <circle id="Ellipse_139" data-name="Ellipse 139" cx="3.5" cy="3.5" r="3.5" transform="translate(678 3283)"/>
    <circle id="Ellipse_253" data-name="Ellipse 253" cx="3.5" cy="3.5" r="3.5" transform="translate(678 3419)"/>
    <circle id="Ellipse_47" data-name="Ellipse 47" cx="3.5" cy="3.5" r="3.5" transform="translate(678 3198)"/>
    <circle id="Ellipse_254" data-name="Ellipse 254" cx="3.5" cy="3.5" r="3.5" transform="translate(678 3334)"/>
    <circle id="Ellipse_140" data-name="Ellipse 140" cx="3.5" cy="3.5" r="3.5" transform="translate(678 3266)"/>
    <circle id="Ellipse_255" data-name="Ellipse 255" cx="3.5" cy="3.5" r="3.5" transform="translate(678 3402)"/>
    <circle id="Ellipse_69" data-name="Ellipse 69" cx="3.5" cy="3.5" r="3.5" transform="translate(678 3232)"/>
    <circle id="Ellipse_256" data-name="Ellipse 256" cx="3.5" cy="3.5" r="3.5" transform="translate(678 3368)"/>
    <circle id="Ellipse_141" data-name="Ellipse 141" cx="3.5" cy="3.5" r="3.5" transform="translate(678 3300)"/>
    <circle id="Ellipse_257" data-name="Ellipse 257" cx="3.5" cy="3.5" r="3.5" transform="translate(678 3436)"/>
    <circle id="Ellipse_37" data-name="Ellipse 37" cx="3.5" cy="3.5" r="3.5" transform="translate(814 3181)"/>
    <circle id="Ellipse_258" data-name="Ellipse 258" cx="3.5" cy="3.5" r="3.5" transform="translate(814 3317)"/>
    <circle id="Ellipse_142" data-name="Ellipse 142" cx="3.5" cy="3.5" r="3.5" transform="translate(814 3249)"/>
    <circle id="Ellipse_259" data-name="Ellipse 259" cx="3.5" cy="3.5" r="3.5" transform="translate(814 3385)"/>
    <circle id="Ellipse_78" data-name="Ellipse 78" cx="3.5" cy="3.5" r="3.5" transform="translate(814 3215)"/>
    <circle id="Ellipse_260" data-name="Ellipse 260" cx="3.5" cy="3.5" r="3.5" transform="translate(814 3351)"/>
    <circle id="Ellipse_143" data-name="Ellipse 143" cx="3.5" cy="3.5" r="3.5" transform="translate(814 3283)"/>
    <circle id="Ellipse_261" data-name="Ellipse 261" cx="3.5" cy="3.5" r="3.5" transform="translate(814 3419)"/>
    <circle id="Ellipse_53" data-name="Ellipse 53" cx="3.5" cy="3.5" r="3.5" transform="translate(814 3198)"/>
    <circle id="Ellipse_262" data-name="Ellipse 262" cx="3.5" cy="3.5" r="3.5" transform="translate(814 3334)"/>
    <circle id="Ellipse_144" data-name="Ellipse 144" cx="3.5" cy="3.5" r="3.5" transform="translate(814 3266)"/>
    <circle id="Ellipse_263" data-name="Ellipse 263" cx="3.5" cy="3.5" r="3.5" transform="translate(814 3402)"/>
    <circle id="Ellipse_79" data-name="Ellipse 79" cx="3.5" cy="3.5" r="3.5" transform="translate(814 3232)"/>
    <circle id="Ellipse_264" data-name="Ellipse 264" cx="3.5" cy="3.5" r="3.5" transform="translate(814 3368)"/>
    <circle id="Ellipse_145" data-name="Ellipse 145" cx="3.5" cy="3.5" r="3.5" transform="translate(814 3300)"/>
    <circle id="Ellipse_265" data-name="Ellipse 265" cx="3.5" cy="3.5" r="3.5" transform="translate(814 3436)"/>
    <circle id="Ellipse_33" data-name="Ellipse 33" cx="3.5" cy="3.5" r="3.5" transform="translate(746 3181)"/>
    <circle id="Ellipse_266" data-name="Ellipse 266" cx="3.5" cy="3.5" r="3.5" transform="translate(746 3317)"/>
    <circle id="Ellipse_146" data-name="Ellipse 146" cx="3.5" cy="3.5" r="3.5" transform="translate(746 3249)"/>
    <circle id="Ellipse_267" data-name="Ellipse 267" cx="3.5" cy="3.5" r="3.5" transform="translate(746 3385)"/>
    <circle id="Ellipse_80" data-name="Ellipse 80" cx="3.5" cy="3.5" r="3.5" transform="translate(746 3215)"/>
    <circle id="Ellipse_268" data-name="Ellipse 268" cx="3.5" cy="3.5" r="3.5" transform="translate(746 3351)"/>
    <circle id="Ellipse_147" data-name="Ellipse 147" cx="3.5" cy="3.5" r="3.5" transform="translate(746 3283)"/>
    <circle id="Ellipse_269" data-name="Ellipse 269" cx="3.5" cy="3.5" r="3.5" transform="translate(746 3419)"/>
    <circle id="Ellipse_54" data-name="Ellipse 54" cx="3.5" cy="3.5" r="3.5" transform="translate(746 3198)"/>
    <circle id="Ellipse_270" data-name="Ellipse 270" cx="3.5" cy="3.5" r="3.5" transform="translate(746 3334)"/>
    <circle id="Ellipse_148" data-name="Ellipse 148" cx="3.5" cy="3.5" r="3.5" transform="translate(746 3266)"/>
    <circle id="Ellipse_271" data-name="Ellipse 271" cx="3.5" cy="3.5" r="3.5" transform="translate(746 3402)"/>
    <circle id="Ellipse_81" data-name="Ellipse 81" cx="3.5" cy="3.5" r="3.5" transform="translate(746 3232)"/>
    <circle id="Ellipse_272" data-name="Ellipse 272" cx="3.5" cy="3.5" r="3.5" transform="translate(746 3368)"/>
    <circle id="Ellipse_149" data-name="Ellipse 149" cx="3.5" cy="3.5" r="3.5" transform="translate(746 3300)"/>
    <circle id="Ellipse_273" data-name="Ellipse 273" cx="3.5" cy="3.5" r="3.5" transform="translate(746 3436)"/>
    <circle id="Ellipse_41" data-name="Ellipse 41" cx="3.5" cy="3.5" r="3.5" transform="translate(882 3181)"/>
    <circle id="Ellipse_274" data-name="Ellipse 274" cx="3.5" cy="3.5" r="3.5" transform="translate(882 3317)"/>
    <circle id="Ellipse_150" data-name="Ellipse 150" cx="3.5" cy="3.5" r="3.5" transform="translate(882 3249)"/>
    <circle id="Ellipse_275" data-name="Ellipse 275" cx="3.5" cy="3.5" r="3.5" transform="translate(882 3385)"/>
    <circle id="Ellipse_88" data-name="Ellipse 88" cx="3.5" cy="3.5" r="3.5" transform="translate(882 3215)"/>
    <circle id="Ellipse_276" data-name="Ellipse 276" cx="3.5" cy="3.5" r="3.5" transform="translate(882 3351)"/>
    <circle id="Ellipse_151" data-name="Ellipse 151" cx="3.5" cy="3.5" r="3.5" transform="translate(882 3283)"/>
    <circle id="Ellipse_277" data-name="Ellipse 277" cx="3.5" cy="3.5" r="3.5" transform="translate(882 3419)"/>
    <circle id="Ellipse_57" data-name="Ellipse 57" cx="3.5" cy="3.5" r="3.5" transform="translate(882 3198)"/>
    <circle id="Ellipse_278" data-name="Ellipse 278" cx="3.5" cy="3.5" r="3.5" transform="translate(882 3334)"/>
    <circle id="Ellipse_152" data-name="Ellipse 152" cx="3.5" cy="3.5" r="3.5" transform="translate(882 3266)"/>
    <circle id="Ellipse_279" data-name="Ellipse 279" cx="3.5" cy="3.5" r="3.5" transform="translate(882 3402)"/>
    <circle id="Ellipse_89" data-name="Ellipse 89" cx="3.5" cy="3.5" r="3.5" transform="translate(882 3232)"/>
    <circle id="Ellipse_280" data-name="Ellipse 280" cx="3.5" cy="3.5" r="3.5" transform="translate(882 3368)"/>
    <circle id="Ellipse_153" data-name="Ellipse 153" cx="3.5" cy="3.5" r="3.5" transform="translate(882 3300)"/>
    <circle id="Ellipse_281" data-name="Ellipse 281" cx="3.5" cy="3.5" r="3.5" transform="translate(882 3436)"/>
  </g>
</svg>
